<?xml version="1.0" encoding="UTF-8"?>
<!DOCTYPE svg PUBLIC "-//W3C//DTD SVG 1.1//EN" "http://www.w3.org/Graphics/SVG/1.1/DTD/svg11.dtd">
<svg xmlns="http://www.w3.org/2000/svg" version="1.1" width="40px" height="40px" style="shape-rendering:geometricPrecision; text-rendering:geometricPrecision; image-rendering:optimizeQuality; fill-rule:evenodd; clip-rule:evenodd" xmlns:xlink="http://www.w3.org/1999/xlink">
<g><path style="opacity:0.974" fill="#3a3f3f" d="M 23.5,14.5 C 23.5,15.8333 22.8333,16.5 21.5,16.5C 20.1667,15.8333 18.8333,15.1667 17.5,14.5C 16.9656,16.1944 15.9656,18.1944 14.5,20.5C 15.3007,18.9582 15.634,17.2915 15.5,15.5C 13.0411,15.31 11.3745,16.31 10.5,18.5C 10.7373,17.209 10.404,16.209 9.5,15.5C 13.7217,10.5813 18.3884,10.248 23.5,14.5 Z"/></g>
<g><path style="opacity:0.99" fill="#4f9357" d="M 30.5,12.5 C 31.0906,13.1515 31.7573,13.8182 32.5,14.5C 32.0431,15.2975 31.3764,15.6309 30.5,15.5C 28.8828,16.038 27.2161,16.3713 25.5,16.5C 25.5,17.8333 25.5,19.1667 25.5,20.5C 24.5386,18.7354 24.2053,16.7354 24.5,14.5C 26.1016,12.9261 28.1016,12.2594 30.5,12.5 Z"/></g>
<g><path style="opacity:0.991" fill="#4b8e52" d="M 24.5,26.5 C 23.8333,26.5 23.5,26.1667 23.5,25.5C 24.6737,24.4863 25.3404,23.153 25.5,21.5C 26.8816,20.1995 28.5483,19.3661 30.5,19C 29.8333,18.6667 29.1667,18.3333 28.5,18C 29.3805,17.2917 30.0472,16.4584 30.5,15.5C 31.3764,15.6309 32.0431,15.2975 32.5,14.5C 31.7573,13.8182 31.0906,13.1515 30.5,12.5C 31.8488,11.2035 33.1821,11.3702 34.5,13C 34.6498,17.5052 32.9831,21.5052 29.5,25C 27.9751,26.0086 26.3084,26.5086 24.5,26.5 Z"/></g>
<g><path style="opacity:0.997" fill="#4a8751" d="M 23.5,14.5 C 23.8333,14.5 24.1667,14.5 24.5,14.5C 24.2053,16.7354 24.5386,18.7354 25.5,20.5C 25.5,20.8333 25.5,21.1667 25.5,21.5C 25.3404,23.153 24.6737,24.4863 23.5,25.5C 23.0623,24.4937 22.3957,24.4937 21.5,25.5C 21.3713,23.7839 21.038,22.1172 20.5,20.5C 20.5,19.8333 20.5,19.1667 20.5,18.5C 21.3382,18.1583 21.6716,17.4916 21.5,16.5C 22.8333,16.5 23.5,15.8333 23.5,14.5 Z"/></g>
<g><path style="opacity:1" fill="#476c4e" d="M 30.5,15.5 C 30.0472,16.4584 29.3805,17.2917 28.5,18C 29.1667,18.3333 29.8333,18.6667 30.5,19C 28.5483,19.3661 26.8816,20.1995 25.5,21.5C 25.5,21.1667 25.5,20.8333 25.5,20.5C 25.5,19.1667 25.5,17.8333 25.5,16.5C 27.2161,16.3713 28.8828,16.038 30.5,15.5 Z"/></g>
<g><path style="opacity:0.97" fill="#3e4445" d="M 17.5,14.5 C 17.5,15.5 17.5,16.5 17.5,17.5C 18.791,17.2627 19.791,17.596 20.5,18.5C 20.5,19.1667 20.5,19.8333 20.5,20.5C 19.2058,21.2899 18.0391,22.2899 17,23.5C 15.583,22.9221 14.7496,21.9221 14.5,20.5C 15.9656,18.1944 16.9656,16.1944 17.5,14.5 Z"/></g>
<g><path style="opacity:0.941" fill="#3f4142" d="M 9.5,15.5 C 10.404,16.209 10.7373,17.209 10.5,18.5C 10.0181,21.8306 11.0181,24.4973 13.5,26.5C 12.8333,27.1667 12.1667,27.8333 11.5,28.5C 5.53916,24.4612 4.8725,20.1279 9.5,15.5 Z"/></g>
<g><path style="opacity:0.991" fill="#404343" d="M 23.5,25.5 C 23.5,26.1667 23.8333,26.5 24.5,26.5C 20.6311,30.7569 16.2978,31.4236 11.5,28.5C 12.1667,27.8333 12.8333,27.1667 13.5,26.5C 16.2491,27.4879 18.9157,27.1546 21.5,25.5C 22.3957,24.4937 23.0623,24.4937 23.5,25.5 Z"/></g>
</svg>
